<svg width="210.7" height="75.201" viewBox="0 0 210.7 75.201" xmlns="http://www.w3.org/2000/svg"><g id="svgGroup" stroke-linecap="round" fill-rule="evenodd" font-size="9pt" stroke="#000" stroke-width="0.25mm" fill="#000" style="stroke:#000;stroke-width:0.25mm;fill:#000"><path d="M 0 68.1 L 4.8 60.1 Q 8.4 63.1 12.9 65 A 23.348 23.348 0 0 0 18.27 66.51 A 32.118 32.118 0 0 0 23.4 66.9 A 27.981 27.981 0 0 0 27.947 66.554 Q 30.37 66.154 32.331 65.293 A 13.701 13.701 0 0 0 34.8 63.9 Q 38.848 61.008 38.995 56.166 A 12.116 12.116 0 0 0 39 55.8 A 11.94 11.94 0 0 0 38.663 52.907 A 9.816 9.816 0 0 0 37.8 50.65 A 8.097 8.097 0 0 0 36.6 48.994 Q 35.33 47.613 33.184 46.271 A 25.81 25.81 0 0 0 33.15 46.25 Q 30.034 44.308 24.265 42.08 A 118.584 118.584 0 0 0 23 41.6 Q 15.8 38.8 11.5 35.95 A 21.931 21.931 0 0 1 8.411 33.502 Q 6.694 31.853 5.638 29.987 A 13.303 13.303 0 0 1 5.35 29.45 Q 3.5 25.8 3.5 20.8 Q 3.5 15.8 6.25 11.75 Q 9 7.7 14.35 5.25 A 25.558 25.558 0 0 1 20.25 3.415 Q 23.493 2.8 27.3 2.8 Q 33.5 2.8 38.45 4.05 Q 43.4 5.3 48.1 7.6 L 44.6 15.7 A 31.496 31.496 0 0 0 40.474 13.681 A 41.686 41.686 0 0 0 36.65 12.35 Q 32.1 11 27.1 11 A 27.187 27.187 0 0 0 23.07 11.28 Q 20.938 11.6 19.2 12.287 A 12.616 12.616 0 0 0 16.7 13.6 A 9.902 9.902 0 0 0 14.537 15.565 A 7.359 7.359 0 0 0 12.9 20.3 A 10.464 10.464 0 0 0 13.192 22.822 A 8.562 8.562 0 0 0 14 24.9 Q 15.056 26.819 18.091 28.647 A 23.503 23.503 0 0 0 18.35 28.8 A 33.003 33.003 0 0 0 20.566 29.972 Q 22.835 31.075 26.046 32.323 A 130.016 130.016 0 0 0 28.1 33.1 A 81.228 81.228 0 0 1 33.078 35.129 Q 37.464 37.1 40.45 39.2 A 26.044 26.044 0 0 1 43.49 41.677 Q 45.713 43.806 46.9 46.15 A 17.579 17.579 0 0 1 48.641 52.013 A 22.155 22.155 0 0 1 48.8 54.7 A 21.71 21.71 0 0 1 48.133 60.201 A 17.105 17.105 0 0 1 45.55 65.8 Q 42.3 70.4 36.55 72.8 A 30.521 30.521 0 0 1 29.14 74.804 A 40.027 40.027 0 0 1 23.4 75.2 Q 16.1 75.2 10.1 73.25 A 38.206 38.206 0 0 1 4.733 71.068 A 28.433 28.433 0 0 1 0 68.1 Z M 210.7 69 L 204.5 75 L 177.6 47.3 L 177.6 74 L 168.6 74 L 168.6 0 L 177.6 0 L 177.6 42.3 L 201.1 21 L 206.3 26.7 L 186.2 44.5 L 210.7 69 Z M 157.3 23.9 L 154.6 31.5 A 30.422 30.422 0 0 0 151.696 30.224 A 23.42 23.42 0 0 0 149.25 29.45 A 20.543 20.543 0 0 0 146.207 28.924 A 26.355 26.355 0 0 0 143.6 28.8 A 15.889 15.889 0 0 0 136.347 30.443 A 16.132 16.132 0 0 0 131.85 33.85 Q 127.1 38.9 127.1 47.8 A 25.192 25.192 0 0 0 127.805 53.86 A 21.45 21.45 0 0 0 129.1 57.6 A 18.564 18.564 0 0 0 132.01 62.177 A 16.275 16.275 0 0 0 134.65 64.6 Q 138.2 67.2 143 67.2 Q 146.165 67.2 148.568 66.61 A 15.08 15.08 0 0 0 149.5 66.35 Q 152.189 65.503 155.276 63.912 A 49.095 49.095 0 0 0 155.3 63.9 L 158.1 71.5 Q 155 73.2 151.15 74.2 Q 147.3 75.2 142.4 75.2 A 26.803 26.803 0 0 1 135.361 74.31 A 22.074 22.074 0 0 1 129.45 71.75 Q 123.9 68.3 120.9 62.15 Q 117.9 56 117.9 48 Q 117.9 40.5 120.95 34.3 Q 124 28.1 129.7 24.45 A 23.067 23.067 0 0 1 139.368 21.029 A 29.608 29.608 0 0 1 143.1 20.8 Q 147.5 20.8 150.85 21.6 Q 154.2 22.4 157.3 23.9 Z M 61.3 57.7 L 61.3 0 L 70.3 0 L 70.3 56.8 A 20.644 20.644 0 0 0 70.488 59.688 Q 70.95 62.952 72.55 64.8 A 7.363 7.363 0 0 0 77.134 67.276 A 10.724 10.724 0 0 0 78.8 67.4 Q 80.7 67.4 82.55 66.95 A 22.192 22.192 0 0 0 84.013 66.544 Q 84.948 66.247 85.7 65.9 L 87.9 73.2 Q 86.501 73.822 84.588 74.323 A 34.978 34.978 0 0 1 83.45 74.6 A 23.816 23.816 0 0 1 80.295 75.085 A 30.514 30.514 0 0 1 77.6 75.2 A 20.862 20.862 0 0 1 72.71 74.646 A 17.544 17.544 0 0 1 69.3 73.45 A 12.683 12.683 0 0 1 63.975 68.685 A 15.856 15.856 0 0 1 63.45 67.8 Q 61.716 64.654 61.38 60.012 A 32.105 32.105 0 0 1 61.3 57.7 Z M 105.4 74 L 96.4 74 L 96.4 22 L 105.4 22 L 105.4 74 Z M 96.537 11.288 A 5.973 5.973 0 0 0 100.9 13.1 A 8.175 8.175 0 0 0 102.396 12.969 A 5.647 5.647 0 0 0 105.5 11.35 Q 107.2 9.6 107.2 6.8 A 7.26 7.26 0 0 0 107.2 6.719 A 6.06 6.06 0 0 0 105.35 2.35 A 7.395 7.395 0 0 0 105.292 2.293 A 6.059 6.059 0 0 0 100.9 0.5 A 8.264 8.264 0 0 0 99.244 0.658 A 5.661 5.661 0 0 0 96.3 2.2 A 5.588 5.588 0 0 0 94.829 4.832 A 7.987 7.987 0 0 0 94.6 6.8 A 5.992 5.992 0 0 0 95.092 9.219 A 6.643 6.643 0 0 0 96.45 11.2 A 7.466 7.466 0 0 0 96.537 11.288 Z" vector-effect="non-scaling-stroke"/></g></svg>